<svg fill="none" height="93" viewBox="0 0 92 93" width="92" xmlns="http://www.w3.org/2000/svg" xmlns:xlink="http://www.w3.org/1999/xlink"><linearGradient id="a"><stop offset="0" stop-color="#09f"/><stop offset=".6" stop-color="#a033ff"/><stop offset=".9" stop-color="#ff5280"/><stop offset="1" stop-color="#ff7061"/></linearGradient><radialGradient id="b" cx="0" cy="0" gradientTransform="matrix(100.718 0 0 100.715 15.3366 92.1208)" gradientUnits="userSpaceOnUse" r="1" xlink:href="#a"/><radialGradient id="c" cx="30.5596" cy="66.5134" gradientUnits="userSpaceOnUse" r="50.3892" xlink:href="#a"/><rect fill="url(#b)" height="91.5618" rx="20" width="91.5618" y=".561523"/><path d="m45.7909 20.7051c-12.9008 0-22.9042 9.4537-22.9042 22.217 0 6.6766 2.7371 12.4485 7.1919 16.4338.3722.3321.6013.8016.6127 1.3055l.126 4.077c.0092.2999.0919.5931.2409.8536s.3597.4805.6135.6405c.2539.16.5433.2552.8426.2773.2993.022.5994-.0298.874-.151l4.5465-2.0041c.3836-.1718.8188-.2004 1.2253-.0916 2.09.5726 4.3118.8818 6.6308.8818 12.9008 0 22.9042-9.4537 22.9042-22.217 0-12.7634-10.0034-22.2228-22.9042-22.2228z" fill="#fff"/><path d="m32.0369 49.4212 6.7281-10.6734c.2531-.4018.5868-.7468.98-1.0132.3931-.2664.8373-.4484 1.3043-.5345.467-.086.9469-.0744 1.4092.0343s.897.3121 1.2768.5973l5.3538 4.0139c.239.179.5298.2752.8284.2742.2985-.0011.5887-.0993.8264-.2799l7.2263-5.4855c.962-.733 2.2217.4237 1.5804 1.4487l-6.7338 10.6676c-.2531.4018-.5868.7468-.98 1.0132-.3931.2664-.8373.4484-1.3043.5345s-.9469.0744-1.4092-.0343-.897-.3121-1.2768-.5973l-5.3538-4.0139c-.239-.179-.5298-.2752-.8284-.2742-.2985.0011-.5887.0993-.8264.2799l-7.2263 5.4856c-.962.7329-2.2217-.418-1.5747-1.443z" fill="url(#c)"/></svg>